<svg xmlns="http://www.w3.org/2000/svg" viewBox="0 0 240 260" role="img" aria-labelledby="t d">
  <title id="t">Тёпа спит</title>
  <desc id="d">House spirit mascot sleeping — for empty states.</desc>

  <ellipse cx="120" cy="246" rx="64" ry="10" fill="#211d1a" opacity="0.06"/>
  <ellipse cx="98" cy="236" rx="17" ry="11" fill="#fdf9f3"/>
  <ellipse cx="142" cy="236" rx="17" ry="11" fill="#fdf9f3"/>
  <path d="M84 238 q14 6 28 0" fill="none" stroke="#e7ddce" stroke-width="2.4" stroke-linecap="round"/>

  <path d="M58 152 C 38 164 36 190 54 196 C 66 199 74 188 70 174 Z" fill="#cf9356"/>
  <path d="M182 152 C 202 164 204 190 186 196 C 174 199 166 188 170 174 Z" fill="#cf9356"/>

  <ellipse cx="120" cy="150" rx="78" ry="80" fill="#cf9356"/>
  <path d="M150 96 C 184 120 192 188 150 224 C 178 196 184 150 168 110 Z" fill="#bd7e42" opacity="0.45"/>

  <path d="M64 124 C 56 178 80 216 120 220 C 160 216 184 178 176 124 C 158 142 150 148 120 148 C 90 148 82 142 64 124 Z" fill="#fdf9f3"/>
  <path d="M120 150 C 118 172 118 196 120 214" fill="none" stroke="#e7ddce" stroke-width="2.6" stroke-linecap="round"/>
  <path d="M96 168 q-4 18 4 34" fill="none" stroke="#e7ddce" stroke-width="2.2" stroke-linecap="round"/>
  <path d="M144 168 q4 18 -4 34" fill="none" stroke="#e7ddce" stroke-width="2.2" stroke-linecap="round"/>

  <ellipse cx="106" cy="134" rx="13" ry="9" fill="#fdf9f3"/>
  <ellipse cx="134" cy="134" rx="13" ry="9" fill="#fdf9f3"/>
  <ellipse cx="86" cy="124" rx="11" ry="7" fill="#e8987a" opacity="0.6"/>
  <ellipse cx="154" cy="124" rx="11" ry="7" fill="#e8987a" opacity="0.6"/>

  <path d="M94 112 q9 8 18 0" fill="none" stroke="#2b2420" stroke-width="3.2" stroke-linecap="round"/>
  <path d="M128 112 q9 8 18 0" fill="none" stroke="#2b2420" stroke-width="3.2" stroke-linecap="round"/>

  <path d="M90 96 q12 -5 24 1" fill="none" stroke="#a06a39" stroke-width="4" stroke-linecap="round"/>
  <path d="M126 97 q12 -6 24 -1" fill="none" stroke="#a06a39" stroke-width="4" stroke-linecap="round"/>

  <ellipse cx="120" cy="126" rx="10" ry="8.5" fill="#9a4226"/>
  <ellipse cx="117" cy="123" rx="3" ry="2.4" fill="#b65a39" opacity="0.7"/>

  <path d="M56 100 C 60 46 94 18 130 24 C 150 27 168 34 178 48 C 172 58 158 60 148 68 C 152 80 152 88 148 96 C 116 86 84 88 56 100 Z" fill="#a14a2c"/>
  <path d="M148 68 C 158 60 172 58 178 48 C 174 56 164 64 152 76 C 152 72 150 70 148 68 Z" fill="#7d3a20" opacity="0.5"/>

  <path d="M52 92 C 78 80 100 84 120 88 C 140 84 162 82 184 92 C 184 104 174 110 162 106 C 138 99 102 99 74 106 C 60 110 50 104 52 92 Z" fill="#fdf9f3"/>
  <circle cx="64" cy="98" r="9" fill="#fdf9f3"/>
  <circle cx="86" cy="100" r="10" fill="#fdf9f3"/>
  <circle cx="110" cy="100" r="10" fill="#fdf9f3"/>
  <circle cx="134" cy="100" r="10" fill="#fdf9f3"/>
  <circle cx="158" cy="99" r="10" fill="#fdf9f3"/>
  <circle cx="176" cy="97" r="9" fill="#fdf9f3"/>
  <circle cx="180" cy="46" r="12" fill="#fdf9f3"/>
  <circle cx="172" cy="40" r="6" fill="#fdf9f3"/>
  <circle cx="188" cy="42" r="6" fill="#fdf9f3"/>
  <circle cx="184" cy="54" r="6" fill="#fdf9f3"/>

  <text x="196" y="70" font-family="'Plus Jakarta Sans', sans-serif" font-size="15" font-weight="700" fill="#a14a2c">z</text>
  <text x="208" y="52" font-family="'Plus Jakarta Sans', sans-serif" font-size="20" font-weight="700" fill="#a14a2c">z</text>
  <text x="222" y="30" font-family="'Plus Jakarta Sans', sans-serif" font-size="26" font-weight="700" fill="#a14a2c">z</text>
</svg>
