<svg xmlns="http://www.w3.org/2000/svg" viewBox="0 0 240 260" role="img" aria-labelledby="t d">
  <title id="t">Тёпа радуется</title>
  <desc id="d">House spirit mascot cheering with sparkles — for rewards and celebrations.</desc>

  <ellipse cx="120" cy="246" rx="64" ry="10" fill="#211d1a" opacity="0.06"/>
  <ellipse cx="98" cy="236" rx="17" ry="11" fill="#fdf9f3"/>
  <ellipse cx="142" cy="236" rx="17" ry="11" fill="#fdf9f3"/>
  <path d="M84 238 q14 6 28 0" fill="none" stroke="#e7ddce" stroke-width="2.4" stroke-linecap="round"/>

  <path d="M64 150 C 44 138 30 112 37 98 C 40 92 49 93 53 103 C 57 120 68 138 72 152 Z" fill="#cf9356"/>
  <circle cx="37" cy="95" r="13" fill="#cf9356"/>
  <path d="M176 150 C 196 138 210 112 203 98 C 200 92 191 93 187 103 C 183 120 172 138 168 152 Z" fill="#cf9356"/>
  <circle cx="203" cy="95" r="13" fill="#cf9356"/>

  <ellipse cx="120" cy="150" rx="78" ry="80" fill="#cf9356"/>
  <path d="M150 96 C 184 120 192 188 150 224 C 178 196 184 150 168 110 Z" fill="#bd7e42" opacity="0.45"/>

  <path d="M64 124 C 56 178 80 216 120 220 C 160 216 184 178 176 124 C 158 142 150 148 120 148 C 90 148 82 142 64 124 Z" fill="#fdf9f3"/>
  <path d="M120 150 C 118 172 118 196 120 214" fill="none" stroke="#e7ddce" stroke-width="2.6" stroke-linecap="round"/>
  <path d="M96 168 q-4 18 4 34" fill="none" stroke="#e7ddce" stroke-width="2.2" stroke-linecap="round"/>
  <path d="M144 168 q4 18 -4 34" fill="none" stroke="#e7ddce" stroke-width="2.2" stroke-linecap="round"/>

  <ellipse cx="106" cy="134" rx="13" ry="9" fill="#fdf9f3"/>
  <ellipse cx="134" cy="134" rx="13" ry="9" fill="#fdf9f3"/>
  <ellipse cx="84" cy="122" rx="12" ry="8" fill="#e8987a" opacity="0.7"/>
  <ellipse cx="156" cy="122" rx="12" ry="8" fill="#e8987a" opacity="0.7"/>

  <path d="M94 115 q9 -9 18 0" fill="none" stroke="#2b2420" stroke-width="3.4" stroke-linecap="round"/>
  <path d="M128 115 q9 -9 18 0" fill="none" stroke="#2b2420" stroke-width="3.4" stroke-linecap="round"/>

  <path d="M90 92 q12 -7 24 -1" fill="none" stroke="#a06a39" stroke-width="4" stroke-linecap="round"/>
  <path d="M126 91 q12 -6 24 1" fill="none" stroke="#a06a39" stroke-width="4" stroke-linecap="round"/>

  <ellipse cx="120" cy="126" rx="10" ry="8.5" fill="#9a4226"/>
  <ellipse cx="117" cy="123" rx="3" ry="2.4" fill="#b65a39" opacity="0.7"/>

  <path d="M56 100 C 60 46 94 18 130 24 C 150 27 168 34 178 48 C 172 58 158 60 148 68 C 152 80 152 88 148 96 C 116 86 84 88 56 100 Z" fill="#a14a2c"/>
  <path d="M148 68 C 158 60 172 58 178 48 C 174 56 164 64 152 76 C 152 72 150 70 148 68 Z" fill="#7d3a20" opacity="0.5"/>

  <path d="M52 92 C 78 80 100 84 120 88 C 140 84 162 82 184 92 C 184 104 174 110 162 106 C 138 99 102 99 74 106 C 60 110 50 104 52 92 Z" fill="#fdf9f3"/>
  <circle cx="64" cy="98" r="9" fill="#fdf9f3"/>
  <circle cx="86" cy="100" r="10" fill="#fdf9f3"/>
  <circle cx="110" cy="100" r="10" fill="#fdf9f3"/>
  <circle cx="134" cy="100" r="10" fill="#fdf9f3"/>
  <circle cx="158" cy="99" r="10" fill="#fdf9f3"/>
  <circle cx="176" cy="97" r="9" fill="#fdf9f3"/>
  <circle cx="180" cy="46" r="12" fill="#fdf9f3"/>
  <circle cx="172" cy="40" r="6" fill="#fdf9f3"/>
  <circle cx="188" cy="42" r="6" fill="#fdf9f3"/>
  <circle cx="184" cy="54" r="6" fill="#fdf9f3"/>

  <path d="M28 132 Q31 138 37 141 Q31 144 28 150 Q25 144 19 141 Q25 138 28 132 Z" fill="#e7b53f"/>
  <path d="M214 130 Q217 136 223 139 Q217 142 214 148 Q211 142 205 139 Q211 136 214 130 Z" fill="#e7b53f"/>
  <path d="M58 54 Q60 59 65 61 Q60 63 58 68 Q56 63 51 61 Q56 59 58 54 Z" fill="#e7b53f"/>
</svg>
